PathFileType	4	(X/Y/Z)	C:\Users\86182\Documents\cortex\Trimmed_M4_H16.trc
DataRate	CameraRate	NumFrames	NumMarkers	Units	OrigDataRate	OrigDataStartFrame	OrigNumFrames
100.00	100.00	       115	2	mm	100.00	1	       901
Frame#	Time	gripper			box			
		X1	Y1	Z1	X2	Y2	Z2	

1	0.000	277.13129	150.14389	192.34738	280.41266	147.02448	57.43897	
2	0.010	277.12744	150.14604	192.34566	280.41354	147.02510	57.43877	
3	0.020	277.12717	150.14691	192.34424	280.41452	147.02583	57.43848	
4	0.030	277.12985	150.14644	192.34352	280.41550	147.02664	57.43807	
5	0.040	277.13422	150.14485	192.34367	280.41629	147.02742	57.43755	
6	0.050	277.13895	150.14270	192.34433	280.41669	147.02803	57.43685	
7	0.060	277.14304	150.14076	192.34494	280.41660	147.02850	57.43589	
8	0.070	277.14587	150.13969	192.34528	280.41626	147.02901	57.43464	
9	0.080	277.14713	150.13972	192.34543	280.41605	147.02962	57.43330	
10	0.090	277.14685	150.14069	192.34561	280.41614	147.03023	57.43226	
11	0.100	277.14542	150.14217	192.34583	280.41641	147.03065	57.43179	
12	0.110	277.14355	150.14366	192.34595	280.41672	147.03072	57.43201	
13	0.120	277.14175	150.14468	192.34570	280.41687	147.03035	57.43286	
14	0.130	277.14001	150.14500	192.34505	280.41681	147.02968	57.43402	
15	0.140	277.13803	150.14487	192.34427	280.41650	147.02887	57.43515	
16	0.150	277.13571	150.14470	192.34389	280.41595	147.02805	57.43607	
17	0.160	277.13293	150.14482	192.34439	280.41531	147.02724	57.43680	
18	0.170	277.12988	150.14520	192.34573	280.41470	147.02650	57.43747	
19	0.180	277.12680	150.14534	192.34761	280.41415	147.02579	57.43817	
20	0.190	277.12415	150.14458	192.34964	280.41354	147.02501	57.43893	
21	0.200	277.12228	150.14265	192.35152	280.41278	147.02415	57.43967	
22	0.210	277.12164	150.13982	192.35312	280.41205	147.02342	57.44019	
23	0.220	277.12262	150.13678	192.35435	280.41150	147.02306	57.44027	
24	0.230	277.12512	150.13445	192.35503	280.41129	147.02315	57.43987	
25	0.240	277.12878	150.13350	192.35484	280.41150	147.02370	57.43909	
26	0.250	277.13278	150.13419	192.35378	280.41205	147.02455	57.43813	
27	0.260	277.13632	150.13626	192.35199	280.41284	147.02545	57.43737	
28	0.270	277.13873	150.13918	192.34982	280.41370	147.02608	57.43717	
29	0.280	277.13968	150.14243	192.34767	280.41443	147.02629	57.43757	
30	0.290	277.13928	150.14571	192.34593	280.41486	147.02618	57.43824	
31	0.300	277.13828	150.14864	192.34468	280.41486	147.02586	57.43880	
32	0.310	277.13733	150.15074	192.34375	280.41437	147.02548	57.43897	
33	0.320	277.13651	150.15170	192.34291	280.41364	147.02518	57.43873	
34	0.330	277.13544	150.15144	192.34201	280.41287	147.02501	57.43821	
35	0.340	277.13409	150.15009	192.34114	280.41226	147.02498	57.43761	
36	0.350	277.13287	150.14786	192.34055	280.41187	147.02502	57.43709	
37	0.360	277.13217	150.14505	192.34039	280.41168	147.02512	57.43672	
38	0.370	277.13220	150.14197	192.34058	280.41165	147.02524	57.43649	
39	0.380	277.13287	150.13899	192.34088	280.41177	147.02539	57.43634	
40	0.390	277.13397	150.13666	192.34120	280.41196	147.02551	57.43631	
41	0.400	277.13535	150.13547	192.34138	280.41199	147.02542	57.43654	
42	0.410	277.13696	150.13573	192.34126	280.41190	147.02501	57.43713	
43	0.420	277.13889	150.13722	192.34079	280.41162	147.02438	57.43799	
44	0.430	277.14105	150.13934	192.34018	280.41138	147.02376	57.43883	
45	0.440	277.14328	150.14157	192.33971	280.41119	147.02332	57.43940	
46	0.450	277.14514	150.14362	192.33940	280.41116	147.02318	57.43955	
47	0.460	277.14630	150.14542	192.33922	280.41122	147.02332	57.43932	
48	0.470	277.14645	150.14708	192.33916	280.41132	147.02357	57.43888	
49	0.480	277.14542	150.14874	192.33917	280.41138	147.02379	57.43847	
50	0.490	277.14319	150.15041	192.33920	280.41135	147.02393	57.43816	
51	0.500	277.13995	150.15195	192.33919	280.41125	147.02406	57.43790	
52	0.510	277.13620	150.15305	192.33902	280.41110	147.02431	57.43756	
53	0.520	277.13272	150.15320	192.33846	280.41092	147.02469	57.43711	
54	0.530	277.13013	150.15210	192.33740	280.41061	147.02524	57.43657	
55	0.540	277.12848	150.14998	192.33626	280.41019	147.02588	57.43604	
56	0.550	277.12729	150.14757	192.33583	280.40964	147.02655	57.43559	
57	0.560	277.12589	150.14574	192.33688	280.40903	147.02722	57.43520	
58	0.570	277.12408	150.14479	192.33945	280.40854	147.02774	57.43496	
59	0.580	277.12222	150.14450	192.34297	280.40829	147.02785	57.43499	
60	0.590	277.12094	150.14436	192.34674	280.40848	147.02750	57.43533	
61	0.600	277.12064	150.14407	192.35030	280.40891	147.02676	57.43591	
62	0.610	277.12128	150.14363	192.35329	280.40942	147.02579	57.43676	
63	0.620	277.12262	150.14310	192.35547	280.40985	147.02467	57.43786	
64	0.630	277.12427	150.14233	192.35663	280.41006	147.02350	57.43916	
65	0.640	277.12582	150.14107	192.35664	280.41013	147.02234	57.44056	
66	0.650	277.12717	150.13924	192.35544	280.41006	147.02129	57.44194	
67	0.660	277.12857	150.13730	192.35321	280.40994	147.02045	57.44308	
68	0.670	277.13031	150.13582	192.35037	280.40985	147.01996	57.44379	
69	0.680	277.13281	150.13489	192.34734	280.40979	147.01985	57.44395	
70	0.690	277.13617	150.13429	192.34456	280.40985	147.02013	57.44357	
71	0.700	277.14005	150.13370	192.34250	280.41000	147.02074	57.44268	
72	0.710	277.14359	150.13290	192.34149	280.41022	147.02159	57.44141	
73	0.720	277.14606	150.13188	192.34152	280.41049	147.02260	57.43993	
74	0.730	277.14743	150.13065	192.34236	280.41077	147.02361	57.43845	
75	0.740	277.14819	150.12923	192.34360	280.41098	147.02438	57.43729	
76	0.750	277.14886	150.12766	192.34468	280.41107	147.02472	57.43678	
77	0.760	277.14996	150.12585	192.34500	280.41101	147.02454	57.43703	
78	0.770	277.15189	150.12392	192.34415	280.41083	147.02399	57.43785	
79	0.780	277.15466	150.12233	192.34244	280.41064	147.02330	57.43889	
80	0.790	277.15753	150.12170	192.34088	280.41049	147.02267	57.43987	
81	0.800	277.15964	150.12251	192.34047	280.41046	147.02222	57.44066	
82	0.810	277.16055	150.12483	192.34183	280.41052	147.02193	57.44122	
83	0.820	277.16043	150.12840	192.34488	280.41071	147.02187	57.44152	
84	0.830	277.15948	150.13258	192.34892	280.41098	147.02202	57.44157	
85	0.840	277.15802	150.13664	192.35294	280.41135	147.02229	57.44144	
86	0.850	277.15622	150.14005	192.35609	280.41165	147.02267	57.44112	
87	0.860	277.15417	150.14238	192.35802	280.41183	147.02307	57.44062	
88	0.870	277.15201	150.14330	192.35864	280.41180	147.02347	57.43993	
89	0.880	277.14984	150.14276	192.35820	280.41165	147.02391	57.43901	
90	0.890	277.14761	150.14125	192.35715	280.41144	147.02438	57.43803	
91	0.900	277.14539	150.13947	192.35594	280.41116	147.02473	57.43726	
92	0.910	277.14340	150.13791	192.35480	280.41089	147.02486	57.43686	
93	0.920	277.14206	150.13678	192.35373	280.41071	147.02493	57.43662	
94	0.930	277.14154	150.13600	192.35268	280.41071	147.02515	57.43626	
95	0.940	277.14178	150.13548	192.35159	280.41101	147.02551	57.43571	
96	0.950	277.14227	150.13525	192.35043	280.41162	147.02591	57.43513	
97	0.960	277.14252	150.13554	192.34904	280.41269	147.02628	57.43463	
98	0.970	277.14246	150.13658	192.34727	280.41428	147.02664	57.43409	
99	0.980	277.14233	150.13838	192.34514	280.41644	147.02711	57.43335	
100	0.990	277.14197	150.14088	192.34293	280.41904	147.02757	57.43255	
101	1.000	277.14047	150.14415	192.34140	280.42154	147.02765	57.43219	
102	1.010	277.13644	150.14830	192.34181	280.42331	147.02707	57.43283	
103	1.020	277.12845	150.15338	192.34544	280.42331	147.02574	57.43484	
104	1.030	277.11499	150.15944	192.35349	280.42014	147.02373	57.43858	
105	1.040	277.09467	150.16652	192.36696	280.41199	147.02104	57.44455	
106	1.050	277.06689	150.17424	192.38629	280.39670	147.01765	57.45340	
107	1.060	277.03302	150.18156	192.41087	280.37228	147.01350	57.46571	
108	1.070	276.99680	150.18701	192.43895	280.33759	147.00859	57.48153	
109	1.080	276.96393	150.18907	192.46767	280.29321	147.00290	57.50002	
110	1.090	276.94202	150.18605	192.49310	280.24200	146.99596	57.51913	
111	1.100	276.94138	150.17564	192.51042	280.18878	146.98672	57.53601	
112	1.110	276.97562	150.15482	192.51421	280.13882	146.97363	57.54810	
113	1.120	277.06128	150.12004	192.49878	280.09680	146.95535	57.55459	
114	1.130	277.21548	150.06822	192.45908	280.06644	146.93173	57.55727	
115	1.140	277.45041	149.99823	192.39322	280.05057	146.90425	57.56056	
